<svg id="Layer_1" data-name="Layer 1" xmlns="http://www.w3.org/2000/svg" viewBox="0 0 1280 166.97"><defs><style>.cls-1{fill:#ec7700;}.cls-2{fill:#231f20;}</style></defs><title>Artboard 1</title><path d="M21,0A22.25,22.25,0,0,0,3.24,33.74c.06,0,.07.06.14,0a.09.09,0,0,0,.07-.12,27.84,27.84,0,0,1,2.3-20.12h0A28,28,0,0,1,21,.23c.06,0,.1-.09.08-.14A.12.12,0,0,0,21,0ZM27.7,7.85a17.81,17.81,0,0,0-14.17,27,.18.18,0,0,0,.16,0c.05,0,.08-.06.08-.12a22.27,22.27,0,0,1,1.8-16.08h0A22.6,22.6,0,0,1,27.76,8s.07-.08.07-.09S27.79,7.85,27.7,7.85Zm5,8.75A11.43,11.43,0,0,0,23.53,34a.14.14,0,0,0,.14,0s.09-.07.07-.11a14.23,14.23,0,0,1,1.15-10.27h0a14.19,14.19,0,0,1,7.8-6.8c.07,0,.07-.09.07-.15S32.69,16.6,32.66,16.6Zm139.7,133.29a34.08,34.08,0,0,0,24.21,5c11.22-1.78,27.56-10.36,38.5-30.57-4.59,2.61-11.71,3.47-15.74,3.35-12.58-.47-22.2-4.34-33.43-11.32-14.72-8.75-33-21.3-33-21.3s42.25,47.45,118.22,62.72c-1.44,7.78-10.72,13.72-28,4.65-16.17-8.5-39.58-16.72-56.59-22.84-28-10.07-54.86-9.62-74-22.27-31.56-21-1.74-49.89-1.74-49.89s-64.25-31.93-75-36.64c-1.58-.66-1.82-3.52,1.33-2.3C52.72,34.74,107.89,57.94,146,63.71c59.93,9.08,123.66,8.17,141.72-14.25,8.31-10.16,11.2-15.36,3.59-19.08-13.95-6.81-13-11.75-11.63-12.09,8.23,0,38.5-.86,42.85,1.3S337.88,32.7,344.37,34s46.14,3.18,46.14,3.18-2.6,23.94-23.06,25.63c-13.82,1.21-37.07-5-62.16,25.29S217.86,167,185.74,167C173.86,167,167.38,156.6,172.36,149.89Z"/><path class="cls-1" d="M428.17,53.9a2.21,2.21,0,0,0-2.45-2.52h-4.58V39.14h13.75c5.32,0,7.69,2.37,7.69,7.7v16.8a48.5,48.5,0,0,1-.23,4.88h.23s5.12-8,17.35-8c15.68,0,25.67,12.37,25.67,30.27,0,18.41-11.24,30.31-26.54,30.31-12,0-17.26-8.18-17.26-8.18h-.22a31.56,31.56,0,0,1,.22,3.86v3H428.17Zm28.38,55c7.81,0,14.51-6.48,14.51-17.93,0-11-5.89-18.14-14.39-18.14-7.48,0-14.53,5.42-14.53,18.26C442.14,100.05,446.9,108.91,456.55,108.91Zm66.31-48.44c16.57,0,25.65,12.14,25.65,27.46,0,1.68-.36,5.33-.36,5.33H508.23c1.14,10.2,8.62,15.54,17.34,15.54,9.33,0,16.22-6.48,16.22-6.48l6,10a35.06,35.06,0,0,1-23.23,8.74c-19.2,0-31.11-13.86-31.11-30.31C493.46,73,505.5,60.47,522.86,60.47Zm10.89,22.8c-.22-6.91-5-11.69-10.89-11.69-7.38,0-12.59,4.43-14.17,11.69Zm28.87-6.7a2.22,2.22,0,0,0-2.47-2.5h-4.56V61.83h13.29c5.1,0,7.59,2.37,7.59,6.45V70a16.09,16.09,0,0,1-.23,2.52h.23a22.25,22.25,0,0,1,20.41-12c12.85,0,20.22,6.69,20.22,22v22.58a2.31,2.31,0,0,0,2.5,2.53h4.53V119.7H610.39c-5.46,0-7.68-2.3-7.68-7.75V85.42c0-7-1.83-11.8-9.11-11.8-7.71,0-13.48,4.88-15.56,11.8A25.82,25.82,0,0,0,577,93.14V119.7H562.62Zm92.84-16.1c12.59,0,16.66,7,16.66,7h.23s-.14-1.49-.14-3.42V53.9a2.21,2.21,0,0,0-2.47-2.52h-4.5V39.14H679c5.31,0,7.7,2.37,7.7,7.7v58.21a2.3,2.3,0,0,0,2.51,2.53h4.42V119.7h-13.3c-5.19,0-7.15-2.53-7.15-5.91v-2.16h-.21s-4.75,9.42-18,9.42c-15.65,0-25.77-12.38-25.77-30.31C629.12,72.38,640.12,60.47,655.46,60.47Zm17.11,30.16c0-8.94-4.64-17.79-14.29-17.79-7.95,0-14.5,6.44-14.5,17.9,0,11,5.75,18.17,14.27,18.17C665.54,108.91,672.57,103.46,672.57,90.63Z"/><path d="M708.66,51.5A2.22,2.22,0,0,0,706.17,49h-4.65V39.58h10.89c5.11,0,7.24,2.16,7.24,7.26V65.58a47,47,0,0,1-.23,4.74h.23s5-9.41,18.51-9.41c15.43,0,25.2,12.26,25.2,30.07,0,18.28-11,30.07-26.1,30.07a20.62,20.62,0,0,1-18-9.65H719a36.69,36.69,0,0,1,.24,4.33v4H708.66Zm27,60.13c9.08,0,16.56-7.49,16.56-20.53,0-12.48-6.69-20.53-16.35-20.53-8.5,0-16.46,6-16.46,20.63C719.42,101.41,724.78,111.63,735.67,111.63Zm39.24-37.44a2.23,2.23,0,0,0-2.48-2.5h-4.66v-9.4h10.44c5,0,7.39,2,7.39,6.69v3.63a31.43,31.43,0,0,1-.24,4h.24c2.72-8.4,9.29-14.95,18.15-14.95a24.1,24.1,0,0,1,3,.21v10.9a15.93,15.93,0,0,0-3.29-.35c-7,0-13.5,5-16.13,13.5a35.19,35.19,0,0,0-1.37,10.31V119.7h-11Zm64.7-13.28c17.15,0,31,12.58,31,30s-13.83,30.17-31,30.17-30.88-12.7-30.88-30.17S822.44,60.91,839.61,60.91Zm0,50.62c10.89,0,19.75-8.64,19.75-20.65s-8.86-20.43-19.75-20.43S820,79,820,90.88,828.81,111.53,839.61,111.53ZM910.09,84h2.48v-.58c0-10.1-3.73-13.72-12.69-13.72-2.73,0-9.43.67-9.43,4.42v3.31H880.14V71.69c0-9.4,14.28-10.78,19.84-10.78,18.61,0,23.61,9.77,23.61,22.46v24.4a2.21,2.21,0,0,0,2.5,2.5h4.65v9.43H920.41c-5.1,0-7.17-2.53-7.17-6.59a22.34,22.34,0,0,1,.25-3.4h-.25A19.58,19.58,0,0,1,895,121.05c-9.87,0-19.5-6-19.5-17.48C875.48,85.09,900.45,84,910.09,84Zm-12.7,28.25c9.27,0,15.3-9.77,15.3-18.27V92h-2.82c-8.32,0-23.3.46-23.3,11C886.57,107.65,890.13,112.2,897.39,112.2ZM960.9,60.91c13.31,0,17.72,8.87,17.72,8.87h.2a37.43,37.43,0,0,1-.2-3.85V51.5A2.24,2.24,0,0,0,976.11,49h-4.64V39.58h10.88c5.11,0,7.27,2.16,7.27,7.26v60.93a2.2,2.2,0,0,0,2.49,2.5h4.64v9.43H986.21c-5,0-7-2.3-7-6.15,0-1.7.11-3,.11-3h-.23s-4.74,10.45-18.85,10.45c-15.53,0-25.33-12.25-25.33-30.07C934.89,72.73,945.69,60.91,960.9,60.91Zm18.07,30c0-10.22-5.36-20.43-16.34-20.43-9,0-16.47,7.5-16.47,20.53,0,12.48,6.7,20.55,16.22,20.55C970.89,111.53,979,105.5,979,90.88Zm31.31-39.38a2.24,2.24,0,0,0-2.52-2.51h-4.65V39.58H1014c5.12,0,7.26,2.16,7.26,7.26V65.58c0,2.7-.22,4.74-.22,4.74h.22s5-9.41,18.5-9.41c15.42,0,25.2,12.26,25.2,30.07,0,18.28-11,30.07-26.11,30.07a20.67,20.67,0,0,1-18-9.65h-.23a38.26,38.26,0,0,1,.23,4.33v4h-10.53Zm27,60.13c9,0,16.54-7.49,16.54-20.53,0-12.48-6.67-20.53-16.32-20.53-8.53,0-16.46,6-16.46,20.63C1021.05,101.41,1026.38,111.63,1037.29,111.63Zm69-27.68h2.51v-.58c0-10.1-3.77-13.72-12.72-13.72-2.73,0-9.41.67-9.41,4.42v3.31H1076.3V71.69c0-9.4,14.28-10.78,19.86-10.78,18.61,0,23.59,9.77,23.59,22.46v24.4a2.23,2.23,0,0,0,2.51,2.5h4.64v9.43h-10.31c-5.11,0-7.15-2.53-7.15-6.59a24.23,24.23,0,0,1,.23-3.4h-.23a19.65,19.65,0,0,1-18.27,11.34c-9.89,0-19.52-6-19.52-17.48C1071.65,85.09,1096.61,84,1106.25,84Zm-12.69,28.25c9.27,0,15.3-9.77,15.3-18.27V92H1106c-8.25,0-23.27.46-23.27,11C1082.76,107.65,1086.3,112.2,1093.56,112.2Zm45.26-38a2.25,2.25,0,0,0-2.52-2.5h-4.62v-9.4h10.52c4.89,0,7.29,2.12,7.29,6.33v2.15a23.61,23.61,0,0,1-.23,3.3h.23A23.36,23.36,0,0,1,1171,60.91c13.63,0,19.74,7.37,19.74,22v24.84a2.22,2.22,0,0,0,2.53,2.5h4.63v9.43H1187c-5.12,0-7.26-2.18-7.26-7.28v-27c0-8-1.57-14.38-10.75-14.38a18.62,18.62,0,0,0-18.17,14,23.25,23.25,0,0,0-1,7.71v26.9h-11Zm88.74-13.28c13.25,0,17.7,8.87,17.7,8.87h.21a35.67,35.67,0,0,1-.21-3.85V51.5a2.24,2.24,0,0,0-2.53-2.51h-4.64V39.58H1249c5.11,0,7.27,2.16,7.27,7.26v60.93a2.22,2.22,0,0,0,2.51,2.5h4.63v9.43h-10.54c-5,0-7-2.3-7-6.15,0-1.7.09-3,.09-3h-.22s-4.77,10.45-18.83,10.45c-15.55,0-25.33-12.25-25.33-30.07C1201.54,72.73,1212.32,60.91,1227.56,60.91Zm18,30c0-10.22-5.34-20.43-16.32-20.43-9,0-16.45,7.5-16.45,20.53,0,12.48,6.67,20.55,16.2,20.55C1237.51,111.53,1245.59,105.5,1245.59,90.88Z"/><path class="cls-2" d="M1272.16,38.07a8,8,0,1,1-7.78,8A7.88,7.88,0,0,1,1272.16,38.07Zm0,14.5a6.51,6.51,0,1,0-6.18-6.5A6.28,6.28,0,0,0,1272.16,52.57Zm-2.67-10.66h3.17a2.41,2.41,0,0,1,2.61,2.52,2.2,2.2,0,0,1-1.51,2.19v0a3,3,0,0,1,.28.46l1.58,3h-1.71L1272.38,47H1271v3.19h-1.55Zm2.87,3.92a1.27,1.27,0,0,0,1.33-1.4,1.23,1.23,0,0,0-1.33-1.34H1271v2.74Z"/><path d="M968.42,155H957.65l-3,8.52h-2.78l9.81-26.75h2.82l9.82,26.75H971.5ZM963,139.58s-.57,2.21-1,3.46l-3.58,9.7h9.21l-3.5-9.7c-.46-1.25-1-3.46-1-3.46Z"/><path d="M994.88,139.16h-9.63V136.8h21.84v2.36H997.5v24.39h-2.62Z"/><path d="M1011.22,136.8h8.64c8,0,13.42,4.91,13.42,13.36s-5.4,13.39-13.42,13.39h-8.64Zm8.37,24.39c6.58,0,11-3.88,11-11s-4.42-11-11-11h-5.74v22Z"/><path d="M1038.94,158.56a10.41,10.41,0,0,0,7,2.93c2.93,0,5.32-1.75,5.32-4.64,0-6.73-13.35-5-13.35-13.31,0-3.84,3.39-7.19,8.33-7.19a10.37,10.37,0,0,1,7.15,2.59l-1.29,2.2a9.13,9.13,0,0,0-5.86-2.28c-3.42,0-5.63,2.24-5.63,4.6,0,6.36,13.35,4.53,13.35,13.32,0,4-3.08,7.22-8.1,7.22a11.77,11.77,0,0,1-8.48-3.42Z"/><path d="M1062.66,136.21a5.92,5.92,0,1,1-5.75,5.91A5.85,5.85,0,0,1,1062.66,136.21Zm0,11a5,5,0,1,0-4.79-5A4.88,4.88,0,0,0,1062.66,147.17Zm-1.93-8.22H1063a1.8,1.8,0,0,1,1.9,1.89,1.66,1.66,0,0,1-1.19,1.68v0a2.25,2.25,0,0,1,.22.36l1.22,2.39h-1l-1.27-2.57h-1.22v2.57h-.92Zm2.1,3.06a1.07,1.07,0,0,0,1.13-1.17,1,1,0,0,0-1.13-1.12h-1.18V142Z"/><path d="M1095.22,136.35c6.39,0,9.62,3.46,9.62,3.46l-1.4,1.94a12.57,12.57,0,0,0-8.14-3c-6.28,0-10.77,4.87-10.77,11.19s4.49,11.6,10.84,11.6A12.49,12.49,0,0,0,1104,158l1.53,1.87a14.31,14.31,0,0,1-10.24,4.14c-7.91,0-13.54-6.2-13.54-14A13.27,13.27,0,0,1,1095.22,136.35Z"/><path d="M1122.82,136.35A13.52,13.52,0,0,1,1136.44,150a13.62,13.62,0,1,1-27.24,0A13.52,13.52,0,0,1,1122.82,136.35Zm0,25.22c6,0,10.88-5,10.88-11.56a10.89,10.89,0,1,0-21.76,0C1111.94,156.55,1116.77,161.57,1122.82,161.57Z"/><path d="M1143.65,136.8h2.74l7,15.72c.61,1.37,1.29,3.27,1.29,3.27h.08s.72-1.9,1.33-3.27l7-15.72h2.7l2.13,26.75h-2.62l-1.49-18.72c-.11-1.44-.07-3.73-.07-3.73h-.08s-.8,2.36-1.41,3.73L1156,158.56h-2.48l-6.27-13.73c-.61-1.33-1.45-3.8-1.45-3.8h-.07s0,2.36-.08,3.8l-1.48,18.72h-2.63Z"/><path d="M1174.83,136.8h9.24c4.79,0,8.26,3.13,8.26,8.07s-3.47,8.18-8.26,8.18h-6.62v10.5h-2.62Zm8.9,13.89c3.57,0,5.9-2.17,5.9-5.82s-2.33-5.71-5.86-5.71h-6.32v11.53Z"/><path d="M1209.7,155h-10.77l-3,8.52h-2.78l9.82-26.75h2.81l9.82,26.75h-2.78Zm-5.4-15.45s-.58,2.21-1,3.46l-3.58,9.7h9.21l-3.5-9.7c-.46-1.25-1-3.46-1-3.46Z"/><path d="M1219.92,136.8h2.55l13.66,19.25c.91,1.33,2.2,3.62,2.2,3.62h.08s-.23-2.21-.23-3.62V136.8h2.62v26.75h-2.55L1224.6,144.3c-.92-1.33-2.21-3.62-2.21-3.62h-.07s.22,2.21.22,3.62v19.25h-2.62Z"/><path d="M1254.25,152.06l-9-15.26h3l5.67,9.71c.8,1.36,1.64,3.19,1.64,3.19h.07a35.47,35.47,0,0,1,1.64-3.19l5.67-9.71h3l-9,15.26v11.49h-2.67Z"/></svg>